PathFileType	4	(X/Y/Z)	C:/Users/opensim2020/Desktop/walking_exp_matlab/subject03_walking04_straight_04.trc																																																																																																																																																							
DataRate	CameraRate	NumFrames	NumMarkers	Units	OrigDataRate	OrigDataStartFrame	OrigNumFrames																																																																																																																																																			
100	100	6	51	mm	100	3172	293																																																																																																																																																			
Frame#	Time	LFHD			RFHD			LBHD			RBHD			C7			T10			CLAV			STRN			RBAK			LSHO			LUPA			LELB			LFRM			LWRA			LWRB			LFIN			RSHO			RUPA			RELB			RFRM			RWRA			RWRB			RFIN			LASI			RASI			LPSI			RPSI			LTHI			LKNE			LTIB			LANK			LHEE			LTOE			RTHI			RKNE			RTIB			RANK			RHEE			RTOE			*39			*40			*41			*42			*43			*44			*45			*46			*47			*48			*49			*50		
		X1	Y1	Z1	X2	Y2	Z2	X3	Y3	Z3	X4	Y4	Z4	X5	Y5	Z5	X6	Y6	Z6	X7	Y7	Z7	X8	Y8	Z8	X9	Y9	Z9	X10	Y10	Z10	X11	Y11	Z11	X12	Y12	Z12	X13	Y13	Z13	X14	Y14	Z14	X15	Y15	Z15	X16	Y16	Z16	X17	Y17	Z17	X18	Y18	Z18	X19	Y19	Z19	X20	Y20	Z20	X21	Y21	Z21	X22	Y22	Z22	X23	Y23	Z23	X24	Y24	Z24	X25	Y25	Z25	X26	Y26	Z26	X27	Y27	Z27	X28	Y28	Z28	X29	Y29	Z29	X30	Y30	Z30	X31	Y31	Z31	X32	Y32	Z32	X33	Y33	Z33	X34	Y34	Z34	X35	Y35	Z35	X36	Y36	Z36	X37	Y37	Z37	X38	Y38	Z38	X39	Y39	Z39	X40	Y40	Z40	X41	Y41	Z41	X42	Y42	Z42	X43	Y43	Z43	X44	Y44	Z44	X45	Y45	Z45	X46	Y46	Z46	X47	Y47	Z47	X48	Y48	Z48	X49	Y49	Z49	X50	Y50	Z50	X51	Y51	Z51
																																																																																																																																																										
147	1.46	-181.50792	1613.61292	-1681.48389	-206.24455	1615.229	-1550.17908	-306.13165	1563.45032	-1698.76282	-326.69986	1565.91248	-1569.36548	-342.81723	1408.71191	-1642.33496	-380.17657	1095.41675	-1638.55469	-222.83002	1329.59937	-1630.32056	-181.01781	1164.94983	-1636.72253	-405.72098	1233.29248	-1551.88867	-250.94487	1369.77698	-1787.59558	-211.7961	1183.80261	-1864.16553	-164.07329	1071.41528	-1874.08777	-80.47838	975.46069	-1854.724	-10.35368	889.42627	-1804.35339	-22.70951	877.20337	-1856.95947	37.08081	823.45258	-1835.79102	-280.34998	1352.06238	-1474.53638	-306.25504	1128.70361	-1405.45581	-304.83777	1015.36108	-1393.79443	-309.8992	878.38672	-1391.67053	-295.44934	778.99725	-1426.94055	-327.00677	779.42053	-1382.3772	-318.18152	704.94989	-1393.60767	-213.12303	933.54712	-1758.13611	-208.7589	931.38788	-1517.84937	-374.36819	954.21497	-1701.85706	-370.5885	954.3244	-1552.93921	-300.70154	633.94891	-1780.38989	-329.6236	459.49136	-1735.77917	-416.85803	282.16147	-1730.56885	-475.96948	79.88639	-1680.66345	-520.52167	50.60597	-1642.16785	-327.36285	33.84075	-1655.40723	-198.76407	638.53351	-1466.27295	-118.55473	477.72043	-1508.13794	-110.7789	291.535	-1502.46667	-70.59389	77.81985	-1544.94202	-104.84271	39.84011	-1600.34058	73.40993	61.33124	-1560.5968	-272.28009	1667.85608	-1638.44348	NaN	NaN	NaN	NaN	NaN	NaN	NaN	NaN	NaN	NaN	NaN	NaN	NaN	NaN	NaN	NaN	NaN	NaN	NaN	NaN	NaN	NaN	NaN	NaN	NaN	NaN	NaN	NaN	NaN	NaN	NaN	NaN	NaN
148	1.47	-172.1843	1612.93652	-1680.74683	-196.96196	1614.22693	-1549.36853	-296.82275	1562.83643	-1698.23364	-317.38635	1564.95117	-1568.78149	-333.20929	1407.73718	-1641.65491	-371.00412	1094.66443	-1637.95703	-213.37549	1328.62073	-1630.0874	-171.85466	1163.95325	-1636.70972	-396.43579	1232.5459	-1551.59778	-241.8324	1368.96838	-1787.28821	-202.54678	1183.05676	-1863.80334	-154.58258	1070.82239	-1873.53088	-70.15031	975.97614	-1853.6167	1.06083	891.12103	-1802.64661	-11.11528	878.46356	-1855.2478	49.49106	825.7309	-1833.64453	-270.78854	1351.00928	-1474.15747	-298.21143	1127.83984	-1405.42712	-297.4978	1014.40515	-1393.84155	-303.2381	877.45776	-1392.08374	-289.04489	778.18524	-1427.37708	-321.15125	778.61182	-1382.93677	-312.55109	704.05884	-1394.24536	-204.40742	932.60016	-1758.18579	-199.30566	930.4046	-1517.88269	-365.47842	953.14606	-1701.12231	-361.18457	953.40491	-1552.20166	-293.94644	633.6557	-1780.41724	-324.1813	459.12747	-1736.23706	-414.07031	282.35983	-1730.5802	-475.00012	80.99767	-1681.00427	-520.2431	52.35489	-1642.74646	-326.90076	33.71461	-1655.73047	-190.97328	637.45679	-1466.09717	-111.69695	476.20581	-1508.66943	-100.17685	290.71838	-1503.37109	-54.17301	77.90958	-1546.44995	-87.08766	39.87841	-1602.19299	90.7708	64.00127	-1560.17395	-263.08231	1667.20728	-1637.8717	NaN	NaN	NaN	NaN	NaN	NaN	NaN	NaN	NaN	NaN	NaN	NaN	NaN	NaN	NaN	NaN	NaN	NaN	NaN	NaN	NaN	NaN	NaN	NaN	NaN	NaN	NaN	NaN	NaN	NaN	NaN	NaN	NaN
149	1.48	-162.85698	1612.40161	-1679.96045	-187.60181	1613.37061	-1548.58533	-287.57538	1562.26941	-1697.66809	-307.995	1564.02979	-1568.1073	-323.71826	1407.27222	-1641.28064	-361.75909	1094.08948	-1637.48206	-203.87579	1327.73975	-1629.77002	-162.64867	1162.95715	-1636.56042	-387.02167	1231.98108	-1551.38989	-232.54428	1368.26135	-1786.97949	-193.3625	1182.38403	-1863.34436	-145.20345	1070.23193	-1872.83252	-59.98369	976.30713	-1852.47021	11.9213	892.47443	-1800.93921	0.00149	879.40485	-1853.49976	61.23421	827.68158	-1831.69568	-261.18375	1350.19568	-1473.75513	-289.8125	1127.05957	-1405.43616	-289.86978	1013.63159	-1393.95789	-296.38202	876.64941	-1392.43774	-282.60861	777.31757	-1427.81226	-314.93912	777.85382	-1383.52478	-306.6059	703.34521	-1394.99805	-195.49586	931.71539	-1758.31152	-189.58113	929.79352	-1517.87976	-356.42377	952.11035	-1700.40967	-351.63605	952.71082	-1551.60742	-286.95581	633.35522	-1780.47485	-318.44431	458.86188	-1736.71313	-410.57706	283.06586	-1730.92944	-474.30334	82.26048	-1681.35718	-519.8327	54.36336	-1643.37598	-327.0101	33.58308	-1655.53015	-182.75829	636.69653	-1466.323	-105.14461	474.85818	-1509.21997	-90.61488	289.85385	-1504.40991	-40.28181	77.96004	-1547.40405	-71.31535	39.87288	-1604.23669	105.91094	65.99876	-1559.88965	-253.57811	1666.49048	-1636.896	NaN	NaN	NaN	NaN	NaN	NaN	NaN	NaN	NaN	NaN	NaN	NaN	NaN	NaN	NaN	NaN	NaN	NaN	NaN	NaN	NaN	NaN	NaN	NaN	NaN	NaN	NaN	NaN	NaN	NaN	NaN	NaN	NaN
150	1.49	-153.42554	1611.86926	-1679.19177	-178.19199	1612.60767	-1547.79211	-278.20303	1561.77319	-1697.05603	-298.62216	1563.27625	-1567.44006	-314.04169	1406.77039	-1640.83252	-352.29129	1093.51758	-1637.08032	-194.34331	1326.93945	-1629.39893	-153.38763	1162.17285	-1636.41052	-377.49686	1231.50525	-1551.00269	-223.07338	1367.6438	-1786.62659	-184.30504	1181.71375	-1862.82971	-136.04123	1069.6217	-1872.09937	-50.18168	976.46198	-1851.31262	22.42327	893.59674	-1799.42627	10.65271	880.15576	-1851.922	72.27491	829.27264	-1829.88269	-251.48938	1349.57947	-1473.34143	-281.23209	1126.44067	-1405.41479	-281.84799	1012.95935	-1394.18896	-289.0451	876.01166	-1392.88306	-275.53888	776.63086	-1428.3252	-308.11182	777.29913	-1384.24341	-300.18011	702.75458	-1395.7229	-186.49611	930.8714	-1758.44739	-179.59859	929.47778	-1517.88184	-347.1088	951.19092	-1699.74988	-341.89377	952.19757	-1551.13281	-279.66092	633.08002	-1780.5863	-312.35883	458.60632	-1737.1189	-406.91251	283.92267	-1731.37744	-473.76968	84.30993	-1682.41663	-519.24066	56.63737	-1643.87805	-326.56519	33.56312	-1655.91541	-174.31099	636.12714	-1467.15454	-98.33023	473.5119	-1509.80103	-82.12468	288.92969	-1505.43555	-27.91893	77.70937	-1548.66626	-57.91378	39.58033	-1605.9873	118.73164	67.46316	-1560.17578	-244.1263	1665.86243	-1635.86365	NaN	NaN	NaN	NaN	NaN	NaN	NaN	NaN	NaN	NaN	NaN	NaN	NaN	NaN	NaN	NaN	NaN	NaN	NaN	NaN	NaN	NaN	NaN	NaN	NaN	NaN	NaN	NaN	NaN	NaN	NaN	NaN	NaN
151	1.5	-144.121	1611.5188	-1678.45593	-168.79266	1612.03796	-1546.93823	-268.67047	1561.32007	-1696.24023	-289.08307	1562.57593	-1566.70239	-304.28351	1406.3031	-1640.18164	-342.72745	1093.03809	-1636.74854	-184.60445	1326.36975	-1629.10474	-143.93987	1161.50073	-1636.25159	-367.88004	1231.12402	-1550.62183	-213.59184	1367.14026	-1786.25037	-175.32582	1181.09021	-1862.27283	-127.08508	1068.98669	-1871.24048	-40.85742	976.52399	-1850.14746	32.43843	894.39783	-1797.96265	20.65882	880.58478	-1850.34265	82.85915	830.30975	-1828.18188	-241.74634	1348.97363	-1472.88062	-272.39594	1126.00537	-1405.45569	-273.52597	1012.52234	-1394.40149	-281.32825	875.60583	-1393.31921	-268.20389	776.19843	-1428.78259	-300.85941	776.9361	-1384.82239	-293.22406	702.32507	-1396.51343	-177.22937	930.15039	-1758.37878	-169.5535	929.40961	-1517.82544	-337.6084	950.45062	-1699.14282	-332.02994	951.96478	-1550.61047	-272.03491	632.91388	-1780.63208	-305.83899	458.42953	-1737.53369	-402.91718	284.89642	-1731.71667	-472.56	86.07	-1682.38855	-518.59882	59.34777	-1644.34937	-326.23529	33.42215	-1655.87061	-165.41237	635.75568	-1468.34729	-91.24101	472.3779	-1510.47034	-74.4014	287.95657	-1506.41919	-17.77934	77.09756	-1549.97131	-47.04131	38.83176	-1607.37708	129.2336	68.18855	-1561.09375	-234.75903	1665.44177	-1635.13184	NaN	NaN	NaN	NaN	NaN	NaN	NaN	NaN	NaN	NaN	NaN	NaN	NaN	NaN	NaN	NaN	NaN	NaN	NaN	NaN	NaN	NaN	NaN	NaN	NaN	NaN	NaN	NaN	NaN	NaN	NaN	NaN	NaN
152	1.51	-134.70631	1611.29382	-1677.66821	-159.20204	1611.54285	-1546.20496	-259.39304	1561.00269	-1695.67737	-279.4534	1561.92114	-1565.87	-294.56506	1405.91296	-1639.63135	-332.99081	1092.59302	-1636.41321	-174.83427	1325.90674	-1628.69287	-134.29166	1160.96423	-1635.99268	-358.06476	1230.77795	-1550.23279	-203.9295	1366.70471	-1785.79675	-166.38057	1180.49097	-1861.57141	-118.22717	1068.35791	-1870.25488	-31.7641	976.25446	-1848.90955	42.1396	894.94232	-1796.60828	30.16676	880.68445	-1848.8053	92.65392	831.03638	-1826.651	-231.94965	1348.65527	-1472.46399	-263.37125	1125.66406	-1405.45764	-264.91644	1012.12256	-1394.62817	-273.34439	875.20264	-1393.60852	-260.25552	775.84033	-1429.27124	-293.10693	776.58386	-1385.43518	-285.95978	701.97955	-1397.26282	-167.75256	929.49799	-1758.17175	-159.3918	929.48712	-1517.66638	-327.89536	949.86395	-1698.58008	-322.03595	951.90802	-1550.17102	-264.01373	632.75128	-1780.53284	-298.84314	458.28479	-1737.89844	-398.48111	285.94955	-1731.82214	-471.40314	88.19488	-1682.70166	-517.98157	62.45115	-1644.71362	-326.01254	33.32878	-1655.95923	-156.1353	635.39948	-1469.64026	-83.82114	471.25351	-1511.13123	-67.07831	286.8627	-1507.39038	-9.73064	76.30768	-1551.02258	-38.90325	37.89117	-1608.51379	137.40489	67.78629	-1562.48022	-225.33856	1664.97327	-1634.14954	NaN	NaN	NaN	NaN	NaN	NaN	NaN	NaN	NaN	NaN	NaN	NaN	NaN	NaN	NaN	NaN	NaN	NaN	NaN	NaN	NaN	NaN	NaN	NaN	NaN	NaN	NaN	NaN	NaN	NaN	NaN	NaN	NaN
